<svg id="visual" viewBox="0 0 1920 1080" width="1920" height="1080" xmlns="http://www.w3.org/2000/svg" xmlns:xlink="http://www.w3.org/1999/xlink" version="1.1"><path d="M0 757L26.7 747.8C53.3 738.7 106.7 720.3 160 722.5C213.3 724.7 266.7 747.3 320 741.3C373.3 735.3 426.7 700.7 480 700.3C533.3 700 586.7 734 640 729.8C693.3 725.7 746.7 683.3 800 669C853.3 654.7 906.7 668.3 960 687.8C1013.3 707.3 1066.7 732.7 1120 729.3C1173.3 726 1226.7 694 1280 690.2C1333.3 686.3 1386.7 710.7 1440 720.8C1493.3 731 1546.7 727 1600 725.8C1653.3 724.7 1706.7 726.3 1760 734.8C1813.3 743.3 1866.7 758.7 1893.3 766.3L1920 774L1920 1081L1893.3 1081C1866.7 1081 1813.3 1081 1760 1081C1706.7 1081 1653.3 1081 1600 1081C1546.7 1081 1493.3 1081 1440 1081C1386.7 1081 1333.3 1081 1280 1081C1226.7 1081 1173.3 1081 1120 1081C1066.7 1081 1013.3 1081 960 1081C906.7 1081 853.3 1081 800 1081C746.7 1081 693.3 1081 640 1081C586.7 1081 533.3 1081 480 1081C426.7 1081 373.3 1081 320 1081C266.7 1081 213.3 1081 160 1081C106.7 1081 53.3 1081 26.7 1081L0 1081Z" fill="#2e8b57"></path><path d="M0 731L26.7 725.3C53.3 719.7 106.7 708.3 160 709C213.3 709.7 266.7 722.3 320 740.5C373.3 758.7 426.7 782.3 480 788.3C533.3 794.3 586.7 782.7 640 768.3C693.3 754 746.7 737 800 733.7C853.3 730.3 906.7 740.7 960 736.8C1013.3 733 1066.7 715 1120 712.2C1173.3 709.3 1226.7 721.7 1280 733.8C1333.3 746 1386.7 758 1440 769.2C1493.3 780.3 1546.7 790.7 1600 786.8C1653.3 783 1706.7 765 1760 746.8C1813.3 728.7 1866.7 710.3 1893.3 701.2L1920 692L1920 1081L1893.3 1081C1866.7 1081 1813.3 1081 1760 1081C1706.7 1081 1653.3 1081 1600 1081C1546.7 1081 1493.3 1081 1440 1081C1386.7 1081 1333.3 1081 1280 1081C1226.7 1081 1173.3 1081 1120 1081C1066.7 1081 1013.3 1081 960 1081C906.7 1081 853.3 1081 800 1081C746.7 1081 693.3 1081 640 1081C586.7 1081 533.3 1081 480 1081C426.7 1081 373.3 1081 320 1081C266.7 1081 213.3 1081 160 1081C106.7 1081 53.3 1081 26.7 1081L0 1081Z" fill="#3f9d62"></path><path d="M0 775L26.7 788.3C53.3 801.7 106.7 828.3 160 822.8C213.3 817.3 266.7 779.7 320 774.3C373.3 769 426.7 796 480 799C533.3 802 586.7 781 640 779C693.3 777 746.7 794 800 802.7C853.3 811.3 906.7 811.7 960 803.5C1013.3 795.3 1066.7 778.7 1120 770.7C1173.3 762.7 1226.7 763.3 1280 772.5C1333.3 781.7 1386.7 799.3 1440 815.7C1493.3 832 1546.7 847 1600 849.8C1653.3 852.7 1706.7 843.3 1760 834.7C1813.3 826 1866.7 818 1893.3 814L1920 810L1920 1081L1893.3 1081C1866.7 1081 1813.3 1081 1760 1081C1706.7 1081 1653.3 1081 1600 1081C1546.7 1081 1493.3 1081 1440 1081C1386.7 1081 1333.3 1081 1280 1081C1226.7 1081 1173.3 1081 1120 1081C1066.7 1081 1013.3 1081 960 1081C906.7 1081 853.3 1081 800 1081C746.7 1081 693.3 1081 640 1081C586.7 1081 533.3 1081 480 1081C426.7 1081 373.3 1081 320 1081C266.7 1081 213.3 1081 160 1081C106.7 1081 53.3 1081 26.7 1081L0 1081Z" fill="#50af6d"></path><path d="M0 897L26.7 888.2C53.3 879.3 106.7 861.7 160 864.8C213.3 868 266.7 892 320 901.2C373.3 910.3 426.7 904.7 480 888.3C533.3 872 586.7 845 640 839.5C693.3 834 746.7 850 800 849.3C853.3 848.7 906.7 831.3 960 826.2C1013.3 821 1066.7 828 1120 845C1173.3 862 1226.7 889 1280 895.3C1333.3 901.7 1386.7 887.3 1440 880C1493.3 872.7 1546.7 872.3 1600 875.2C1653.3 878 1706.7 884 1760 882.7C1813.3 881.3 1866.7 872.7 1893.3 868.3L1920 864L1920 1081L1893.3 1081C1866.7 1081 1813.3 1081 1760 1081C1706.7 1081 1653.3 1081 1600 1081C1546.7 1081 1493.3 1081 1440 1081C1386.7 1081 1333.3 1081 1280 1081C1226.7 1081 1173.3 1081 1120 1081C1066.7 1081 1013.3 1081 960 1081C906.7 1081 853.3 1081 800 1081C746.7 1081 693.3 1081 640 1081C586.7 1081 533.3 1081 480 1081C426.7 1081 373.3 1081 320 1081C266.7 1081 213.3 1081 160 1081C106.7 1081 53.3 1081 26.7 1081L0 1081Z" fill="#61c278"></path><path d="M0 874L26.7 879.7C53.3 885.3 106.7 896.7 160 910.8C213.3 925 266.7 942 320 948.3C373.3 954.7 426.7 950.3 480 940.3C533.3 930.3 586.7 914.7 640 902.7C693.3 890.7 746.7 882.3 800 887.8C853.3 893.3 906.7 912.7 960 915.2C1013.3 917.7 1066.7 903.3 1120 900.7C1173.3 898 1226.7 907 1280 918.2C1333.3 929.3 1386.7 942.7 1440 948.5C1493.3 954.3 1546.7 952.7 1600 949.5C1653.3 946.3 1706.7 941.7 1760 934.2C1813.3 926.7 1866.7 916.3 1893.3 911.2L1920 906L1920 1081L1893.3 1081C1866.7 1081 1813.3 1081 1760 1081C1706.7 1081 1653.3 1081 1600 1081C1546.7 1081 1493.3 1081 1440 1081C1386.7 1081 1333.3 1081 1280 1081C1226.7 1081 1173.3 1081 1120 1081C1066.7 1081 1013.3 1081 960 1081C906.7 1081 853.3 1081 800 1081C746.7 1081 693.3 1081 640 1081C586.7 1081 533.3 1081 480 1081C426.7 1081 373.3 1081 320 1081C266.7 1081 213.3 1081 160 1081C106.7 1081 53.3 1081 26.7 1081L0 1081Z" fill="#73d583"></path><path d="M0 995L26.7 990.7C53.3 986.3 106.7 977.7 160 978.7C213.3 979.7 266.7 990.3 320 987C373.3 983.7 426.7 966.3 480 953.3C533.3 940.3 586.7 931.7 640 930.8C693.3 930 746.7 937 800 944.3C853.3 951.7 906.7 959.3 960 963.8C1013.3 968.3 1066.7 969.7 1120 963.3C1173.3 957 1226.7 943 1280 943.2C1333.3 943.3 1386.7 957.7 1440 968.3C1493.3 979 1546.7 986 1600 988.2C1653.3 990.3 1706.7 987.7 1760 976.5C1813.3 965.3 1866.7 945.7 1893.3 935.8L1920 926L1920 1081L1893.3 1081C1866.7 1081 1813.3 1081 1760 1081C1706.7 1081 1653.3 1081 1600 1081C1546.7 1081 1493.3 1081 1440 1081C1386.7 1081 1333.3 1081 1280 1081C1226.7 1081 1173.3 1081 1120 1081C1066.7 1081 1013.3 1081 960 1081C906.7 1081 853.3 1081 800 1081C746.7 1081 693.3 1081 640 1081C586.7 1081 533.3 1081 480 1081C426.7 1081 373.3 1081 320 1081C266.7 1081 213.3 1081 160 1081C106.7 1081 53.3 1081 26.7 1081L0 1081Z" fill="#85e88d"></path><path d="M0 983L26.7 990.2C53.3 997.3 106.7 1011.7 160 1011.8C213.3 1012 266.7 998 320 992C373.3 986 426.7 988 480 994.8C533.3 1001.7 586.7 1013.3 640 1013.8C693.3 1014.3 746.7 1003.7 800 1002.2C853.3 1000.7 906.7 1008.3 960 1008.3C1013.3 1008.3 1066.7 1000.7 1120 1000.5C1173.3 1000.3 1226.7 1007.7 1280 1005.7C1333.3 1003.7 1386.7 992.3 1440 997.2C1493.3 1002 1546.7 1023 1600 1033.5C1653.3 1044 1706.7 1044 1760 1041C1813.3 1038 1866.7 1032 1893.3 1029L1920 1026L1920 1081L1893.3 1081C1866.7 1081 1813.3 1081 1760 1081C1706.7 1081 1653.3 1081 1600 1081C1546.7 1081 1493.3 1081 1440 1081C1386.7 1081 1333.3 1081 1280 1081C1226.7 1081 1173.3 1081 1120 1081C1066.7 1081 1013.3 1081 960 1081C906.7 1081 853.3 1081 800 1081C746.7 1081 693.3 1081 640 1081C586.7 1081 533.3 1081 480 1081C426.7 1081 373.3 1081 320 1081C266.7 1081 213.3 1081 160 1081C106.7 1081 53.3 1081 26.7 1081L0 1081Z" fill="#98fb98"></path></svg>